<svg width="177" height="50" viewBox="0 0 177 50" fill="none" xmlns="http://www.w3.org/2000/svg">
<path d="M9.07139 0.175313C5.46386 1.68537 1.49798 5.95149 0.24543 11.3064C-1.34083 18.0912 5.26034 20.9603 5.80177 20.0196C6.43903 18.9142 4.61892 18.5404 4.24426 15.0201C3.76005 10.4733 5.87383 5.39285 8.53409 3.16368C9.02859 2.74952 9.00507 3.32596 9.00507 4.3922C9.00507 6.29888 8.89971 23.4153 8.89971 26.9875C8.89971 31.8211 8.70007 33.3475 8.3415 34.8558C7.9782 36.3842 7.39413 37.417 7.8367 37.8148C8.33118 38.2598 10.4424 37.2013 11.6646 35.4955C13.1302 33.4496 13.6433 30.9926 13.7354 28.3244C13.8466 25.1079 13.8419 20.004 13.8466 17.0927C13.8511 14.4227 13.8916 6.60426 13.7998 1.90409C13.7773 0.751239 10.5801 -0.458275 9.07121 0.173911L9.07139 0.175313ZM137.174 22.7964C137.058 25.3093 136.502 27.2735 135.812 28.6589C134.475 31.341 131.702 32.1739 130.524 28.3182C129.883 26.2165 129.853 22.7064 130.314 19.7736C130.784 16.7858 132.095 14.5293 134.266 14.7328C136.408 14.934 137.41 17.6937 137.174 22.7964ZM101.07 38.3871C101.041 42.5624 100.384 46.2233 98.9743 47.2866C96.9757 48.7943 94.2893 47.6633 94.8456 44.6165C95.3378 41.9204 97.6654 39.167 101.075 35.8028C101.075 35.8028 101.082 36.57 101.07 38.3871ZM100.524 22.7721C100.402 25.0609 99.8083 27.3601 99.1609 28.6592C97.8247 31.3413 95.0313 32.1798 93.8737 28.3185C93.0822 25.6804 93.2717 22.2659 93.6634 20.1144C94.1715 17.323 95.4033 14.7334 97.6156 14.7334C99.7664 14.7334 100.827 17.0929 100.524 22.7721ZM79.6083 22.7371C79.4772 25.1611 79.0043 27.1875 78.2454 28.6592C76.8724 31.3229 74.1561 32.1677 72.9581 28.3185C72.0945 25.543 72.3885 21.7586 72.7478 19.7142C73.2809 16.6805 74.6159 14.5296 76.7 14.7334C78.8408 14.9426 79.8815 17.6937 79.6083 22.7371ZM175.46 25.5685C174.936 25.5685 174.697 26.1079 174.5 27.0159C173.814 30.1731 173.094 30.8859 172.165 30.8859C171.128 30.8859 170.195 29.3227 169.955 26.1932C169.767 23.7325 169.797 19.2022 170.038 14.6957C170.087 13.7698 169.832 12.8537 167.349 11.9516C166.28 11.5635 164.727 10.9921 163.953 12.8591C161.768 18.1336 160.913 22.3211 160.712 24.0222C160.701 24.1102 160.593 24.1282 160.574 23.9225C160.446 22.56 160.16 20.0842 160.124 14.8824C160.117 13.8675 159.902 13.0036 158.782 12.2963C158.055 11.8373 155.848 11.0257 155.053 11.9913C154.364 12.7811 153.567 14.9064 152.738 17.4257C152.065 19.4733 151.596 20.8585 151.596 20.8585C151.596 20.8585 151.605 15.3336 151.613 13.2379C151.616 12.4473 151.074 12.1839 150.911 12.1361C150.175 11.9225 148.724 11.5656 148.109 11.5656C147.349 11.5656 147.163 11.9901 147.163 12.6087C147.163 12.6897 147.044 19.8828 147.044 24.9125C147.044 25.131 147.044 25.3693 147.046 25.6225C146.626 27.9343 145.263 31.0724 143.782 31.0724C142.298 31.0724 141.599 29.7604 141.599 23.7642C141.599 20.2662 141.704 18.7451 141.755 16.2151C141.785 14.7579 141.843 13.6388 141.84 13.3849C141.829 12.6061 140.482 12.2136 139.856 12.0686C139.226 11.9223 138.679 11.8656 138.252 11.89C137.647 11.9241 137.219 12.3207 137.219 12.8663C137.219 13.1588 137.223 13.7151 137.223 13.7151C136.444 12.4913 135.192 11.6396 134.358 11.3927C132.114 10.7261 129.771 11.3168 128.005 13.789C126.601 15.7532 125.754 17.9779 125.421 21.1743C125.177 23.511 125.257 25.8806 125.69 27.8846C125.167 30.1459 124.196 31.0724 123.132 31.0724C121.589 31.0724 120.47 28.5529 120.6 24.1956C120.686 21.3296 121.259 19.3183 121.886 16.4085C122.153 15.1682 121.936 14.5188 121.391 13.8963C120.892 13.3256 119.827 13.0339 118.297 13.3926C117.207 13.6483 115.649 13.9233 114.223 14.1346C114.223 14.1346 114.309 13.7913 114.38 13.1861C114.75 10.0123 111.302 10.2699 110.201 11.2836C109.544 11.8888 109.097 12.6026 108.928 13.886C108.659 15.9226 110.32 16.8832 110.32 16.8832C109.775 19.3779 108.439 22.6368 107.059 24.993C106.321 26.2554 105.756 27.1908 105.026 28.1852C105.023 27.8149 105.021 27.4447 105.02 27.0761C105.003 21.8313 105.073 17.7034 105.104 16.2156C105.134 14.7584 105.192 13.669 105.189 13.4151C105.181 12.8455 104.848 12.6304 104.156 12.358C103.545 12.1171 102.821 11.9504 102.071 11.8923C101.124 11.8184 100.554 12.3207 100.569 12.9146C100.571 13.0267 100.571 13.7153 100.571 13.7153C99.7926 12.4915 98.5401 11.6398 97.7067 11.3929C95.4621 10.7266 93.1199 11.3173 91.3532 13.7892C89.9494 15.7534 89.03 18.5098 88.7695 21.1502C88.5269 23.611 88.5717 25.7023 88.9025 27.4639C88.5456 29.2279 87.5194 31.0726 86.3591 31.0726C84.8757 31.0726 84.0317 29.7606 84.0317 23.7644C84.0317 20.2664 84.1367 18.7453 84.1884 16.2156C84.2183 14.7584 84.2762 13.6391 84.2729 13.3854C84.262 12.6066 82.9153 12.2141 82.2888 12.0688C81.6331 11.9172 81.0671 11.8614 80.6325 11.8934C80.059 11.9362 79.6558 12.4497 79.6558 12.8327V13.7153C78.8771 12.4915 77.6245 11.6398 76.7912 11.3929C74.5466 10.7266 72.2174 11.3268 70.4377 13.7892C69.2771 15.3947 68.3376 17.1748 67.854 21.1151C67.7143 22.2538 67.6525 23.3202 67.6606 24.3168C67.1978 27.1471 65.1537 30.4092 63.4817 30.4092C62.5032 30.4092 61.5714 28.5115 61.5714 24.4669C61.5714 19.0794 61.9049 11.4087 61.9612 10.6694C61.9612 10.6694 64.0738 10.6335 64.4829 10.6287C65.5367 10.6172 66.4911 10.6421 67.8946 10.5703C68.5986 10.5344 69.2768 8.00794 68.5503 7.69526C68.221 7.55375 65.8936 7.42974 64.971 7.41016C64.1952 7.39258 62.0354 7.23275 62.0354 7.23275C62.0354 7.23275 62.2291 2.14128 62.2742 1.60343C62.3125 1.15516 61.7325 0.924357 61.3999 0.78431C60.5912 0.442257 59.8676 0.278485 59.01 0.101673C57.825 -0.142772 57.2875 0.096332 57.1825 1.09641C57.0243 2.61419 56.9424 7.05978 56.9424 7.05978C56.0729 7.05978 53.1026 6.88981 52.2328 6.88981C51.4247 6.88981 50.5525 10.3653 51.6697 10.408C52.9552 10.4579 55.1954 10.5009 56.6805 10.5457C56.6805 10.5457 56.6143 18.3428 56.6143 20.7499C56.6143 21.0061 56.6166 21.2527 56.617 21.492C55.7997 25.7522 52.9208 28.0534 52.9208 28.0534C53.5391 25.2351 52.2761 23.1186 50.0013 21.327C49.1632 20.6668 47.5086 19.417 45.6574 18.0473C45.6574 18.0473 46.7296 16.9906 47.6804 14.8647C48.3541 13.3588 48.3832 11.6354 46.7296 11.2554C43.9972 10.627 41.7443 12.6337 41.0724 14.776C40.5517 16.4355 40.8294 17.667 41.8494 18.9462C41.9238 19.0397 42.0045 19.1352 42.0879 19.2313C41.4711 20.4202 40.6238 22.0207 39.9062 23.2619C37.9143 26.708 36.4096 29.4338 35.2725 29.4338C34.3635 29.4338 34.3756 26.6664 34.3756 24.0754C34.3756 21.8417 34.5406 18.4834 34.6723 15.0065C34.7159 13.8566 34.141 13.2015 33.1771 12.6082C32.5915 12.2477 31.3416 11.539 30.6177 11.539C29.5342 11.539 26.4083 11.6864 23.4546 20.2302C23.0824 21.3071 22.3511 23.2693 22.3511 23.2693L22.4141 12.995C22.4141 12.7541 22.2858 12.5213 21.992 12.3619C21.4943 12.0917 20.1649 11.539 18.9829 11.539C18.4197 11.539 18.1386 11.8009 18.1386 12.3231L18.0355 28.3973C18.0355 29.6186 18.0674 31.0434 18.1881 31.6666C18.3084 32.2905 18.5033 32.7981 18.7447 33.1001C18.9858 33.4015 19.2646 33.6315 19.7243 33.7264C20.1522 33.8144 22.4951 34.1153 22.6168 33.22C22.7627 32.147 22.7683 30.9864 23.9986 26.6579C25.9138 19.919 28.411 16.631 29.5849 15.4633C29.7901 15.2592 30.0245 15.2471 30.0132 15.5811C29.9631 17.0585 29.7869 20.7503 29.6682 23.8867C29.3502 32.2801 30.8771 33.8358 33.0592 33.8358C34.7285 33.8358 37.0817 32.1771 39.6043 27.9784C41.177 25.3618 42.7039 22.7961 43.801 20.947C44.5655 21.6547 45.4235 22.4165 46.2809 23.2302C48.2733 25.1212 48.9275 26.9181 48.4934 28.6228C48.1615 29.9259 46.9113 31.2689 44.6863 29.9636C44.0377 29.5828 43.7609 29.2885 43.1089 28.8592C42.7585 28.6286 42.2236 28.5596 41.9029 28.8012C41.0699 29.4293 40.5934 30.2283 40.3214 31.2174C40.0567 32.1798 41.0206 32.6886 42.0198 33.1336C42.8801 33.5166 44.7293 33.8636 45.9086 33.9032C50.5034 34.0568 54.1842 31.6846 56.7465 25.5655C57.2052 30.8501 59.1572 33.8405 62.5488 33.8405C64.8162 33.8405 67.0896 30.9097 68.0838 28.0264C68.3692 29.2017 68.7916 30.2238 69.3372 31.088C71.9506 35.2287 77.0204 34.3375 79.567 30.8214C80.3544 29.735 80.4742 29.3446 80.4742 29.3446C80.8456 32.6646 83.5192 33.8246 85.05 33.8246C86.7645 33.8246 88.5347 33.0141 89.7754 30.2209C89.9208 30.524 90.0795 30.8135 90.2528 31.0879C92.8661 35.2286 97.9359 34.3374 100.483 30.8213C100.603 30.6564 100.707 30.5068 100.798 30.3725L100.873 32.5532C100.873 32.5532 99.4199 33.8859 98.5281 34.7035C94.6031 38.3045 91.6186 41.0365 91.3991 44.218C91.1173 48.2747 94.4073 49.7824 96.8964 49.98C99.5397 50.1897 101.803 48.7295 103.195 46.686C104.418 44.8873 105.219 41.0161 105.161 37.1926C105.137 35.6615 105.099 33.7147 105.068 31.6279C106.448 30.0259 108.002 28.0011 109.433 25.631C110.993 23.0482 112.664 19.5796 113.52 16.8801C113.52 16.8801 114.973 16.8926 116.522 16.7911C117.018 16.7588 117.16 16.86 117.069 17.2234C116.958 17.6625 115.111 24.7879 116.797 29.5346C117.951 32.7841 120.552 33.8295 122.095 33.8295C123.9 33.8295 125.627 32.466 126.553 30.4413C126.665 30.667 126.781 30.8854 126.908 31.0871C129.522 35.2277 134.574 34.3312 137.138 30.8204C137.717 30.0283 138.045 29.3436 138.045 29.3436C138.596 32.7796 141.268 33.8411 142.798 33.8411C144.393 33.8411 145.906 33.1875 147.133 30.2828C147.185 31.5618 147.265 32.6075 147.393 32.9372C147.471 33.1388 147.924 33.392 148.253 33.5142C149.712 34.055 151.199 33.7993 151.75 33.688C152.131 33.6109 152.428 33.305 152.469 32.5153C152.575 30.4416 152.51 26.9574 153.139 24.3681C154.194 20.0225 155.178 18.3368 155.645 17.5023C155.906 17.0347 156.201 16.9576 156.212 17.4524C156.234 18.4537 156.284 21.394 156.693 25.3444C156.993 28.2499 157.394 29.9672 157.702 30.5107C158.582 32.0649 159.668 32.1385 160.553 32.1385C161.116 32.1385 162.293 31.983 162.187 30.9939C162.136 30.5118 162.226 27.5324 163.266 23.2511C163.946 20.4553 165.078 17.9291 165.487 17.0056C165.638 16.665 165.708 16.9335 165.705 16.9858C165.619 18.9112 165.426 25.2089 166.21 28.6533C167.274 33.3193 170.35 33.8414 171.421 33.8414C173.71 33.8414 175.581 32.1008 176.211 27.5209C176.363 26.4187 176.138 25.5676 175.465 25.5676" fill="#747484"/>
</svg>
